REM DIRINDEX 1\2,1\3,1\4,1\5
REM DIRNAME cjc093,folder01,folder02,folder03,folder04
TITLE ""
FILE "Round-04-092-093.mp3" MP3
  TRACK 01 AUDIO
    TITLE "0:"
    INDEX 01 00:00:00
  TRACK 02 AUDIO
    TITLE "2:cjc093_1116"
    INDEX 01 00:00:03
  TRACK 03 AUDIO
    TITLE "0:"
    INDEX 01 00:01:15
  TRACK 04 AUDIO
    TITLE "3:cjc093_1117"
    INDEX 01 00:01:40
  TRACK 05 AUDIO
    TITLE "0:"
    INDEX 01 00:02:63
  TRACK 06 AUDIO
    TITLE "4:cjc093_1118"
    INDEX 01 00:03:31
  TRACK 07 AUDIO
    TITLE "0:"
    INDEX 01 00:07:07
  TRACK 08 AUDIO
    TITLE "4:cjc093_1119"
    INDEX 01 00:07:64
  TRACK 09 AUDIO
    TITLE "0:"
    INDEX 01 00:11:56
  TRACK 10 AUDIO
    TITLE "2:cjc093_1120"
    INDEX 01 00:12:69
  TRACK 11 AUDIO
    TITLE "0:"
    INDEX 01 00:13:69
  TRACK 12 AUDIO
    TITLE "2:cjc093_1121"
    INDEX 01 00:14:19
  TRACK 13 AUDIO
    TITLE "0:"
    INDEX 01 00:16:18
  TRACK 14 AUDIO
    TITLE "3:cjc093_1122"
    INDEX 01 00:16:48
  TRACK 15 AUDIO
    TITLE "0:"
    INDEX 01 00:17:53
  TRACK 16 AUDIO
    TITLE "4:cjc093_1123"
    INDEX 01 00:18:03
  TRACK 17 AUDIO
    TITLE "0:"
    INDEX 01 00:22:15
  TRACK 18 AUDIO
    TITLE "2:cjc093_1124"
    INDEX 01 00:22:70
  TRACK 19 AUDIO
    TITLE "0:"
    INDEX 01 00:25:39
  TRACK 20 AUDIO
    TITLE "3:cjc093_1125"
    INDEX 01 00:26:50
  TRACK 21 AUDIO
    TITLE "0:"
    INDEX 01 00:28:27
  TRACK 22 AUDIO
    TITLE "4:cjc093_1126"
    INDEX 01 00:28:51
  TRACK 23 AUDIO
    TITLE "0:"
    INDEX 01 00:31:41
  TRACK 24 AUDIO
    TITLE "2:cjc093_1127"
    INDEX 01 00:32:54
  TRACK 25 AUDIO
    TITLE "0:"
    INDEX 01 00:34:36
  TRACK 26 AUDIO
    TITLE "3:cjc093_1128"
    INDEX 01 00:35:06
  TRACK 27 AUDIO
    TITLE "0:"
    INDEX 01 00:36:68
  TRACK 28 AUDIO
    TITLE "4:cjc093_1129"
    INDEX 01 00:37:07
  TRACK 29 AUDIO
    TITLE "0:"
    INDEX 01 00:39:27
  TRACK 30 AUDIO
    TITLE "2:cjc093_1130"
    INDEX 01 00:40:32
  TRACK 31 AUDIO
    TITLE "0:"
    INDEX 01 00:41:32
  TRACK 32 AUDIO
    TITLE "2:cjc093_1131"
    INDEX 01 00:41:57
  TRACK 33 AUDIO
    TITLE "0:"
    INDEX 01 00:43:60
  TRACK 34 AUDIO
    TITLE "3:cjc093_1132"
    INDEX 01 00:44:44
  TRACK 35 AUDIO
    TITLE "0:"
    INDEX 01 00:46:45
  TRACK 36 AUDIO
    TITLE "4:cjc093_1133"
    INDEX 01 00:46:70
  TRACK 37 AUDIO
    TITLE "0:"
    INDEX 01 00:49:12
  TRACK 38 AUDIO
    TITLE "3:cjc093_1134"
    INDEX 01 00:50:25
  TRACK 39 AUDIO
    TITLE "0:"
    INDEX 01 00:51:54
  TRACK 40 AUDIO
    TITLE "4:cjc093_1135"
    INDEX 01 00:52:30
  TRACK 41 AUDIO
    TITLE "0:"
    INDEX 01 00:54:74
  TRACK 42 AUDIO
    TITLE "2:cjc093_1136"
    INDEX 01 00:56:12
  TRACK 43 AUDIO
    TITLE "0:"
    INDEX 01 00:57:11
  TRACK 44 AUDIO
    TITLE "2:cjc093_1137"
    INDEX 01 00:57:48
  TRACK 45 AUDIO
    TITLE "0:"
    INDEX 01 00:58:66
  TRACK 46 AUDIO
    TITLE "3:cjc093_1138"
    INDEX 01 00:59:38
  TRACK 47 AUDIO
    TITLE "0:"
    INDEX 01 01:02:42
  TRACK 48 AUDIO
    TITLE "4:cjc093_1139"
    INDEX 01 01:03:24
  TRACK 49 AUDIO
    TITLE "0:"
    INDEX 01 01:06:12
  TRACK 50 AUDIO
    TITLE "2:cjc093_1140"
    INDEX 01 01:07:27
  TRACK 51 AUDIO
    TITLE "0:"
    INDEX 01 01:09:03
  TRACK 52 AUDIO
    TITLE "3:cjc093_1141"
    INDEX 01 01:09:56
  TRACK 53 AUDIO
    TITLE "0:"
    INDEX 01 01:11:35
  TRACK 54 AUDIO
    TITLE "4:cjc093_1142"
    INDEX 01 01:11:51
  TRACK 55 AUDIO
    TITLE "0:"
    INDEX 01 01:14:39
  TRACK 56 AUDIO
    TITLE "2:cjc093_1143"
    INDEX 01 01:15:52
  TRACK 57 AUDIO
    TITLE "0:"
    INDEX 01 01:16:63
  TRACK 58 AUDIO
    TITLE "3:cjc093_1144"
    INDEX 01 01:17:32
  TRACK 59 AUDIO
    TITLE "0:"
    INDEX 01 01:18:39
  TRACK 60 AUDIO
    TITLE "4:cjc093_1145"
    INDEX 01 01:18:68
  TRACK 61 AUDIO
    TITLE "0:"
    INDEX 01 01:21:39
  TRACK 62 AUDIO
    TITLE "4:cjc093_1146"
    INDEX 01 01:22:09
  TRACK 63 AUDIO
    TITLE "0:"
    INDEX 01 01:25:74
  TRACK 64 AUDIO
    TITLE "2:cjc093_1147"
    INDEX 01 01:27:14
  TRACK 65 AUDIO
    TITLE "0:"
    INDEX 01 01:28:33
  TRACK 66 AUDIO
    TITLE "2:cjc093_1148"
    INDEX 01 01:28:53
  TRACK 67 AUDIO
    TITLE "0:"
    INDEX 01 01:30:05
  TRACK 68 AUDIO
    TITLE "3:cjc093_1149"
    INDEX 01 01:30:52
  TRACK 69 AUDIO
    TITLE "0:"
    INDEX 01 01:31:59
  TRACK 70 AUDIO
    TITLE "4:cjc093_1150"
    INDEX 01 01:31:69
  TRACK 71 AUDIO
    TITLE "0:"
    INDEX 01 01:37:36
